Coordinates
version=1
nRows=43
nColumns=12
inDegrees=yes

Units are S.I. units (second, meters, Newtons, ...)
Angles are in degrees

endheader
time	SC_y	SC_z	SC_x	AC_y	AC_z	AC_x	GH_y	GH_z	GH_yy	EL_x	PS_y
       0.0              -48.25          9.471           80.5          36.59          -12.5         -7.405           82.1          42.37          121.0          134.2          83.34
   0.03425              -48.24          9.471           80.5           36.6          -12.5         -7.404          82.09          42.37          121.0          134.1          83.34
    0.0685              -48.24           9.47           80.5           36.6          -12.5         -7.404          82.08          42.37          121.0          134.1          83.35
    0.1027              -48.23          9.469           80.5           36.6          -12.5         -7.403          82.07          42.36          120.9          134.1          83.35
     0.137              -48.23          9.468           80.5          36.61          -12.5         -7.403          82.06          42.36          120.9          134.1          83.35
    0.1712              -48.22          9.467          80.49          36.61          -12.5         -7.402          82.05          42.36          120.9          134.1          83.35
    0.2055              -48.22          9.466          80.49          36.61          -12.5         -7.402          82.04          42.35          120.8          134.1          83.35
    0.2397              -48.21          9.465          80.49          36.62          -12.5         -7.401          82.03          42.35          120.8          134.0          83.35
     0.274               -48.2          9.464          80.49          36.62          -12.5         -7.401          82.01          42.34          120.8          134.0          83.35
    0.3082               -48.2          9.462          80.49          36.63          -12.5           -7.4           82.0          42.34          120.7          134.0          83.35
    0.3425              -48.19          9.461          80.49          36.63          -12.5         -7.399          81.98          42.34          120.7          134.0          83.35
    0.3767              -48.18          9.459          80.48          36.64         -12.51         -7.398          81.97          42.33          120.6          133.9          83.35
     0.411              -48.17          9.458          80.48          36.65         -12.51         -7.397          81.95          42.32          120.6          133.9          83.36
    0.4452              -48.16          9.456          80.48          36.65         -12.51         -7.396          81.93          42.32          120.5          133.9          83.36
    0.4795              -48.15          9.454          80.48          36.66         -12.51         -7.395          81.91          42.31          120.5          133.8          83.36
    0.5137              -48.14          9.452          80.47          36.67         -12.51         -7.394          81.89          42.31          120.4          133.8          83.36
     0.548              -48.13           9.45          80.47          36.68         -12.51         -7.393          81.86           42.3          120.3          133.7          83.36
    0.5822              -48.11          9.447          80.47          36.69         -12.51         -7.392          81.84          42.29          120.2          133.7          83.37
    0.6165               -48.1          9.445          80.46           36.7         -12.51          -7.39          81.81          42.28          120.1          133.6          83.37
    0.6507              -48.08          9.442          80.46          36.71         -12.51         -7.389          81.77          42.27          120.1          133.6          83.37
     0.685              -48.06          9.439          80.46          36.72         -12.51         -7.387          81.74          42.26          119.9          133.5          83.37
    0.7192              -48.05          9.435          80.45          36.74         -12.51         -7.385           81.7          42.25          119.8          133.5          83.38
    0.7535              -48.02          9.431          80.45          36.75         -12.52         -7.383          81.66          42.24          119.7          133.4          83.38
    0.7877               -48.0          9.427          80.44          36.77         -12.52         -7.381          81.61          42.22          119.6          133.3          83.38
     0.822              -47.97          9.422          80.43          36.79         -12.52         -7.378          81.56          42.21          119.4          133.2          83.39
    0.8562              -47.94          9.417          80.43          36.81         -12.52         -7.375           81.5          42.19          119.2          133.1          83.39
    0.8904              -47.91          9.411          80.42          36.84         -12.52         -7.372          81.43          42.17          119.0          133.0           83.4
    0.9247              -47.87          9.404          80.41          36.86         -12.53         -7.368          81.36          42.14          118.8          132.9          83.41
    0.9589              -47.83          9.397           80.4           36.9         -12.53         -7.364          81.28          42.12          118.6          132.7          83.41
    0.9932              -47.78          9.388          80.39          36.93         -12.53         -7.359          81.18          42.09          118.3          132.5          83.42
     1.027              -47.73          9.378          80.37          36.97         -12.54         -7.354          81.07          42.06          118.0          132.4          83.43
     1.062              -47.67          9.367          80.36          37.02         -12.54         -7.348          80.95          42.02          117.6          132.1          83.44
     1.096              -47.59          9.354          80.34          37.07         -12.55         -7.341          80.81          41.98          117.2          131.9          83.45
      1.13              -47.51          9.339          80.32          37.13         -12.55         -7.332          80.64          41.92          116.7          131.6          83.47
     1.164              -47.41          9.321           80.3           37.2         -12.56         -7.323          80.45          41.87          116.1          131.2          83.48
     1.199               -47.3            9.3          80.27          37.29         -12.57         -7.311          80.22          41.79          115.4          130.8           83.5
     1.233              -47.16          9.275          80.24          37.39         -12.58         -7.298          79.94          41.71          114.6          130.4          83.52
     1.267              -46.99          9.245           80.2          37.51         -12.59         -7.282          79.61          41.61          113.6          129.8          83.55
     1.301               -46.8          9.209          80.15          37.65          -12.6         -7.262          79.22          41.49          112.5          129.1          83.59
     1.336              -46.55          9.165          80.09          37.83         -12.62         -7.238          78.74          41.34          111.0          128.2          83.63
      1.37              -46.25          9.111          80.02          38.05         -12.64         -7.209          78.14          41.16          109.3          127.2          83.68
     1.404              -45.88          9.043          79.92          38.33         -12.66         -7.172          77.39          40.93          107.1          125.9          83.74
     1.438               -45.4          8.958          79.81          38.67          -12.7         -7.125          76.46          40.65          104.3          124.2          83.82
